<svg xmlns="http://www.w3.org/2000/svg" width="80" height="80" viewBox="0 0 80 80">
    <g fill="none" fill-rule="evenodd">
        <g fill="#353E3A" fill-rule="nonzero">
            <g>
                <path fill-opacity=".1" d="M0 0H80V80H0z" transform="translate(-11 -8) translate(11 8)"/>
                <g fill-opacity=".2">
                    <path d="M27 3c1.657 0 3 1.343 3 3v9h12c1.657 0 3 1.343 3 3v24c0 1.657-1.343 3-3 3H21V33.5c0-.276-.224-.5-.5-.5h-8c-.276 0-.5.224-.5.5V45H6c-1.657 0-3-1.343-3-3V6c0-1.657 1.343-3 3-3h21zm11.8 30h-5.6c-.11 0-.2.09-.2.2v5.6c0 .11.09.2.2.2h5.6c.11 0 .2-.09.2-.2v-5.6c0-.11-.09-.2-.2-.2zm0-9h-5.6c-.11 0-.2.09-.2.2v5.6c0 .11.09.2.2.2h5.6c.11 0 .2-.09.2-.2v-5.6c0-.11-.09-.2-.2-.2zm-24-6H9.2c-.11 0-.2.09-.2.2v5.6c0 .11.09.2.2.2h5.6c.11 0 .2-.09.2-.2v-5.6c0-.11-.09-.2-.2-.2zm9 0h-5.6c-.11 0-.2.09-.2.2v5.6c0 .11.09.2.2.2h5.6c.11 0 .2-.09.2-.2v-5.6c0-.11-.09-.2-.2-.2zm-9-9H9.2c-.11 0-.2.09-.2.2v5.6c0 .11.09.2.2.2h5.6c.11 0 .2-.09.2-.2V9.2c0-.11-.09-.2-.2-.2zm9 0h-5.6c-.11 0-.2.09-.2.2v5.6c0 .11.09.2.2.2h5.6c.11 0 .2-.09.2-.2V9.2c0-.11-.09-.2-.2-.2z" transform="translate(-11 -8) translate(11 8) translate(16 16)"/>
                </g>
            </g>
        </g>
    </g>
</svg>
