<svg width="259" height="76" viewBox="0 0 259 76" fill="none" xmlns="http://www.w3.org/2000/svg">
<rect width="259" height="76" fill="#EA6500"/>
<g clip-path="url(#clip0_401_23)">
<path d="M47.0313 41.1521C47.0313 42.1941 46.3673 42.5731 45.1813 42.5731C44.4693 42.5731 44.0423 42.1471 44.0423 41.2951C44.0423 40.8671 44.0893 38.9741 44.0893 36.8431C41.4863 39.8611 38.2015 42.2155 34.5073 43.7111C33.2263 44.2311 32.4213 43.0951 33.5073 42.2891C37.2742 40.1159 40.4251 37.0184 42.6623 33.2891H39.4883V33.5721C39.4883 34.5671 38.8243 34.9931 37.6383 34.9931C36.8789 34.9931 36.4993 34.5667 36.4993 33.7141C36.6151 30.9029 36.5517 28.0872 36.3093 25.2841C36.2988 25.1936 36.3116 25.1019 36.3463 25.0177C36.381 24.9335 36.4366 24.8595 36.5078 24.8027C36.579 24.7459 36.6635 24.7082 36.7534 24.693C36.8432 24.6778 36.9354 24.6858 37.0213 24.7161C38.1027 24.9542 39.1315 25.3876 40.0573 25.9951H44.2323C44.2323 25.1421 44.2323 24.1951 44.1853 23.2481H34.8393C34.2223 23.2481 33.7953 23.0591 33.7953 22.3011C33.7953 21.5911 34.2223 21.3541 34.8393 21.3541H44.1883C44.1393 19.8861 44.0443 18.5591 43.9493 17.6611C43.9335 17.5744 43.9381 17.4853 43.9629 17.4008C43.9876 17.3163 44.0318 17.2388 44.0918 17.1744C44.1518 17.11 44.2261 17.0605 44.3087 17.0299C44.3912 16.9993 44.4797 16.9884 44.5673 16.9981C45.8473 16.9981 49.1673 17.2341 49.1673 18.2281C49.1673 18.8451 48.4083 19.2231 47.1273 19.3171C47.1273 19.7441 47.0803 20.5021 47.0803 21.3541H51.5883C52.3463 20.2651 53.2963 19.0821 53.8173 19.0821C54.6253 19.0821 57.4233 21.4021 57.4233 22.3491C57.4703 22.9651 56.8063 23.2491 55.2883 23.2491H47.0343L46.9873 25.9961H51.1133C51.6363 25.2381 52.3003 24.5761 52.7263 24.5761C53.5333 24.5761 56.0003 26.4691 56.0003 27.4641C56.0003 28.0311 55.3373 28.4111 54.6253 28.7431C54.6253 29.9271 54.5763 31.8691 54.5763 32.5791C54.5763 34.0461 53.9613 34.3791 52.8213 34.3791C52.6657 34.3919 52.5092 34.374 52.3606 34.3262C52.212 34.2785 52.0744 34.2018 51.9554 34.1008C51.8365 33.9997 51.7387 33.8761 51.6677 33.7372C51.5966 33.5983 51.5536 33.4466 51.5413 33.2911H46.9883L47.0313 41.1521ZM69.1373 56.4971C70.1813 54.9811 71.5093 53.2291 72.2673 53.2291C73.2173 53.2291 76.7273 56.1181 76.7273 57.3021C76.7273 57.9651 75.9683 58.3911 74.0703 58.3911H34.6973C34.0823 58.3911 33.6533 58.2021 33.6533 57.4441C33.6533 56.7331 34.0813 56.4971 34.6973 56.4971H44.2793C44.3263 53.5141 44.3263 49.5821 44.1373 47.6891C44.1189 47.5959 44.123 47.4997 44.1491 47.4083C44.1753 47.317 44.2227 47.2332 44.2875 47.1638C44.3523 47.0944 44.4327 47.0414 44.522 47.0091C44.6113 46.9768 44.707 46.9662 44.8013 46.9781C45.6083 46.9781 49.5933 47.1661 49.5933 48.3041C49.5933 49.0621 48.7863 49.3931 47.5533 49.6781V56.4971H54.1463V45.3651H38.9203C38.3033 45.3651 37.8763 45.1761 37.8763 44.4191C37.8763 43.7081 38.3033 43.4701 38.9203 43.4701H66.0063C66.8603 42.1911 67.9513 40.8181 68.5683 40.8181C69.4223 40.8181 72.5063 43.3771 72.5063 44.4181C72.5063 45.0321 71.8423 45.3641 70.1813 45.3641H58.3693C58.3693 45.8381 58.0843 46.1691 57.4693 46.3591V49.7691H64.3963C65.2963 48.4901 66.3873 47.0691 67.0043 47.0691C67.8583 47.0691 70.9403 49.6691 70.9403 50.7161C70.9893 51.3301 70.1823 51.6621 68.6173 51.6621H57.4683V56.4931L69.1373 56.4971ZM39.4373 31.3971H44.1883L44.2353 29.3131V27.8931H39.4883C39.4883 28.4611 39.4413 29.7391 39.4413 30.7341L39.4373 31.3971ZM46.9793 27.8971V31.3971H51.4883C51.5353 30.3091 51.5833 28.9351 51.5833 27.8971H46.9793ZM53.9063 37.6051C53.9508 37.8461 53.9448 38.0937 53.8887 38.3323C53.8325 38.5708 53.7275 38.7951 53.5802 38.991C53.4329 39.1869 53.2466 39.3501 53.033 39.4703C52.8194 39.5904 52.5831 39.6649 52.3393 39.6891C51.3393 39.8301 50.9173 38.884 50.3003 38.031C49.8733 37.463 49.3503 36.8941 48.8773 36.3731C48.1653 35.6151 48.5453 34.6731 49.7773 34.9051C51.7273 35.2801 53.6733 35.9431 53.9113 37.6011L53.9063 37.6051ZM72.1223 26.3341C72.3373 26.4396 72.5257 26.5924 72.6734 26.7809C72.8211 26.9695 72.9243 27.189 72.9753 27.4231C72.9753 27.9901 72.3113 28.2761 70.8883 28.3231C70.1172 30.6119 68.9449 32.7451 67.4263 34.6231C70.1158 36.6367 73.2615 37.9541 76.5833 38.4581C78.1473 38.6961 77.5313 39.4071 76.6773 39.7841C75.9288 40.0551 75.2828 40.5516 74.8283 41.2051C74.3523 41.8681 74.1153 42.2471 72.5973 41.7731C69.7395 40.8571 67.1718 39.208 65.1503 36.9901C61.9358 39.5858 58.1454 41.3722 54.0973 42.1991C52.6743 42.5311 52.3423 41.2041 53.6243 40.6851C57.304 39.4981 60.6739 37.5081 63.4903 34.8591C62.2161 32.9671 61.2404 30.8905 60.5973 28.7021C59.5323 30.3318 58.238 31.7996 56.7543 33.0601C55.6643 33.9601 54.7143 33.1071 55.4263 32.0181C58.5372 27.8 60.5876 22.8953 61.4043 17.7181C61.4503 17.2431 61.7823 17.0081 62.3533 17.1021C64.0143 17.4341 66.4813 18.4761 66.4813 19.2791C66.4813 19.9421 65.9103 20.2261 64.3933 20.2741C63.9173 21.6481 63.3933 23.0211 62.8263 24.4421H70.6543C71.5543 23.1631 72.5983 21.7421 73.2163 21.7421C74.0693 21.7421 76.9633 24.3421 77.0103 25.3421C77.0103 26.0051 76.1563 26.337 74.7803 26.337L72.1223 26.3341ZM61.8743 26.4761C62.5783 28.7639 63.7585 30.8769 65.3373 32.6761C66.6942 30.7802 67.6323 28.6173 68.0893 26.3311H61.9233L61.8743 26.4761Z" fill="white"/>
<path d="M94.523 58.249C94.523 59.29 93.859 59.8121 92.436 59.8121C92.259 59.8316 92.0799 59.8104 91.9125 59.75C91.745 59.6896 91.5936 59.5916 91.4699 59.4635C91.3462 59.3355 91.2535 59.1808 91.1989 59.0114C91.1443 58.8419 91.1293 58.6622 91.155 58.486C91.155 55.455 91.44 41.199 91.201 34.475C89.564 36.782 87.7051 38.9232 85.651 40.8681C84.656 41.8631 83.516 40.968 84.371 39.779C89.588 33.007 93.763 25.146 95.092 17.759C95.187 17.237 95.375 17.0011 95.945 17.0491C97.653 17.3811 100.832 18.8491 100.832 19.8901C100.879 20.6951 99.932 20.932 98.507 20.744C97.2164 24.1063 95.6442 27.3535 93.807 30.451C94.944 30.926 96.415 31.682 96.415 32.346C96.415 33.01 95.608 33.295 94.615 33.435C94.474 35.708 94.474 43.143 94.474 44.659L94.523 58.249ZM114.588 30.78C118.004 37.837 123.413 42.763 129.579 44.988C131.097 45.463 130.433 46.125 129.674 46.409C128.91 46.6507 128.255 47.1534 127.824 47.8291C127.256 48.6831 126.876 48.967 125.595 48.399C121.135 45.889 116.628 40.254 113.688 33.054V38.027C113.688 39.637 113.735 43.993 113.783 48.304H116.725C117.625 46.978 118.716 45.557 119.333 45.557C120.233 45.557 123.133 48.157 123.133 49.203C123.133 49.866 122.279 50.198 120.951 50.198H113.788C113.834 54.034 113.882 57.398 113.882 58.298C113.882 59.389 113.219 60.003 111.748 60.003C111.557 60.0221 111.363 59.9986 111.182 59.934C111.001 59.8694 110.837 59.7655 110.701 59.6297C110.564 59.4939 110.46 59.3295 110.395 59.1485C110.33 58.9676 110.306 58.7744 110.325 58.583C110.325 57.636 110.42 54.0831 110.515 50.2001H103.536C102.919 50.2001 102.492 50.012 102.492 49.253C102.492 48.542 102.919 48.307 103.536 48.307H110.556C110.651 44.376 110.746 40.539 110.746 38.978V35.426C107.663 41.772 102.967 47.645 97.036 51.102C95.755 51.902 94.855 50.818 95.945 49.869C101.849 44.7426 106.313 38.1642 108.896 30.784H98.317C97.7 30.784 97.273 30.5961 97.273 29.8381C97.273 29.1281 97.7 28.891 98.317 28.891H110.746C110.776 25.3304 110.586 21.7712 110.177 18.234C110.083 17.809 110.367 17.5711 110.794 17.5711C113.736 17.5711 116.201 17.855 116.201 18.992C116.201 19.798 115.252 20.271 113.783 20.555C113.736 22.118 113.736 25.481 113.688 28.891H121.135C122.179 27.375 123.507 25.5751 124.265 25.5751C125.215 25.5751 128.772 28.511 128.772 29.694C128.772 30.357 127.872 30.783 126.072 30.783L114.588 30.78Z" fill="white"/>
<path d="M145.339 45.8642C145.173 46.1399 144.945 46.3732 144.673 46.5455C144.401 46.7179 144.092 46.8245 143.772 46.8571C143.526 46.8312 143.287 46.7565 143.069 46.6374C142.852 46.5182 142.661 46.357 142.506 46.1632C142.352 45.9693 142.238 45.7466 142.17 45.5082C142.103 45.2697 142.083 45.0202 142.113 44.7742C142.113 43.3532 142.255 43.2111 142.825 42.6431C144.199 41.1751 145.956 39.2821 149.225 31.2311C147.745 31.5561 146.233 31.7144 144.718 31.7031C142.537 31.7031 141.588 31.1352 140.829 30.1402C140.505 29.7394 140.278 29.2692 140.165 28.7661C140.165 28.4341 140.353 28.2941 140.545 28.2941C140.935 28.4224 141.316 28.5802 141.682 28.7661C142.507 29.1138 143.398 29.2759 144.293 29.2411C146.228 29.2032 148.153 28.9489 150.032 28.4831C150.525 26.7725 150.796 25.0058 150.839 23.2261C150.839 22.8471 150.554 21.2381 150.554 20.9071C150.586 20.5535 150.75 20.2248 151.014 19.9873C151.278 19.7499 151.622 19.6212 151.977 19.6272C152.615 19.683 153.212 19.9679 153.657 20.4292C154.102 20.8906 154.364 21.4971 154.397 22.1371C154.069 24.0441 153.512 25.9043 152.737 27.6771C153.022 27.5361 154.491 26.9682 154.682 26.8772C155.082 26.5691 155.531 26.3289 156.009 26.1662C156.817 26.1662 158.002 26.7341 158.002 27.7281C158.002 28.5821 156.863 29.1501 156.674 29.2451C155.774 29.6241 154.351 30.0451 151.741 30.8071C150.509 34.0261 146.761 44.0172 145.339 45.8642ZM171.476 55.5721C171.476 56.5671 171.096 57.1821 170.195 57.1821C169.749 57.2098 169.304 57.1192 168.904 56.9196C168.505 56.7199 168.165 56.4183 167.919 56.0452C167.301 55.4292 164.312 52.4452 162.604 51.5452C162.319 53.1072 161.562 57.3691 155.304 57.3691C152.981 57.3691 148.284 56.4691 148.284 53.1061C148.284 49.9801 151.793 48.0391 156.728 48.0391C157.914 48.0391 158.864 48.1341 159.669 48.1811C159.574 46.4291 159.432 42.4972 159.432 41.4552C159.432 38.3302 159.527 36.7201 162.516 34.4941C162.918 34.1706 163.389 33.9437 163.892 33.8311C164.072 33.8332 164.245 33.9024 164.376 34.025C164.508 34.1476 164.589 34.3148 164.604 34.4941C164.604 34.8731 163.274 36.0571 163.038 36.3411C162.289 37.2267 161.884 38.3531 161.899 39.5131C161.899 40.9831 162.706 47.4701 162.706 48.7961C166.164 49.6521 171.477 53.2091 171.477 55.5721H171.476ZM155.063 49.9831C152.454 49.9831 150.319 50.9781 150.319 52.7771C150.319 54.8141 153.308 55.0031 154.399 55.0031C156.722 55.0031 159.379 53.8681 159.569 50.7421C158.124 50.2256 156.599 49.9686 155.064 49.9831H155.063ZM170.717 32.8831C170.243 32.8831 167.776 33.1671 167.728 33.1671C167.634 33.1671 166.969 33.1671 166.969 32.6951C166.969 32.1731 167.776 31.8891 168.013 31.8411C168.631 31.6051 169.057 31.3671 169.057 30.9411C169.057 29.6151 165.832 29.1892 164.028 28.9982C163.792 28.9522 163.364 28.9051 163.364 28.5261C163.364 27.9101 165.689 27.3881 167.064 27.3881C167.776 27.3881 173.706 27.6261 173.706 31.0351C173.707 32.8881 171.524 32.8881 170.718 32.8881L170.717 32.8831Z" fill="white"/>
<path d="M211.054 36.1562C211.054 38.3352 210.863 45.2963 208.682 49.5113C205.598 55.3363 200.996 55.9043 198.482 55.9043C192.362 55.9043 188.382 52.1643 188.382 46.1483C188.382 40.4183 192.319 34.2612 194.027 32.1302C194.501 31.5142 196.921 28.9582 197.395 28.4362C195.294 29.5028 193.035 30.223 190.705 30.5692C189.187 30.5692 188.382 29.0053 188.382 27.3473C188.382 27.1593 188.382 26.6843 188.714 26.6843C189.054 26.8235 189.387 26.982 189.709 27.1592C190.213 27.3939 190.766 27.5076 191.322 27.4912C193.839 27.4214 196.287 26.6505 198.39 25.2653C199.29 24.5073 199.483 24.3653 200.29 24.3653C200.85 24.3495 201.395 24.5454 201.817 24.9138C202.239 25.2823 202.506 25.7963 202.566 26.3532C202.566 27.2072 202.283 27.3482 200.716 28.1072C197.964 29.4322 191.703 38.0522 191.703 45.3452C191.586 47.3469 192.249 49.3161 193.553 50.8393C194.973 52.0625 196.803 52.7052 198.676 52.6393C204.464 52.6393 209.876 46.4833 209.876 30.2873C209.876 29.9553 209.876 28.2983 209.829 28.1562C209.688 27.3493 208.36 24.0353 208.36 23.3253C208.36 22.3783 208.74 22.1413 209.594 22.1413C211.494 22.1413 211.585 23.0412 211.823 24.7932C212.773 32.6552 218.37 40.8933 221.217 42.4583C223.017 43.4533 223.446 43.6413 223.446 45.0583C223.446 46.3843 222.023 46.6682 221.074 46.6682C218.656 46.6682 217.28 44.6793 214.813 39.8953C212.985 36.4626 211.628 32.7989 210.78 29.0033C210.815 30.0463 211.054 35.6822 211.054 36.1562ZM214.943 24.0323C214.943 23.7953 215.18 23.7003 215.417 23.7003C217.41 23.7003 220.917 25.0743 220.917 27.4893C220.911 27.8733 220.761 28.2412 220.498 28.5211C220.236 28.8011 219.878 28.973 219.495 29.0033C218.545 29.0033 218.404 28.7193 217.502 26.9683C216.871 25.9668 216.068 25.0849 215.13 24.3633C215.033 24.2761 214.968 24.1599 214.943 24.0323ZM223.481 25.4532C222.627 25.4532 222.481 25.2643 221.49 23.7003C220.839 22.6338 219.924 21.7534 218.833 21.1443C218.762 21.1094 218.701 21.0554 218.659 20.9883C218.617 20.9211 218.594 20.8436 218.594 20.7643C218.594 20.3853 219.211 20.3853 219.306 20.3853C221.869 20.3853 224.999 21.7112 224.999 23.9392C224.995 24.3402 224.834 24.7238 224.551 25.0071C224.267 25.2904 223.883 25.4506 223.482 25.4532H223.481Z" fill="white"/>
</g>
<defs>
<clipPath id="clip0_401_23">
<rect width="192" height="43" fill="white" transform="translate(33 17)"/>
</clipPath>
</defs>
</svg>
